<svg width="26" height="28" viewBox="0 0 26 28" fill="none" xmlns="http://www.w3.org/2000/svg">
<circle cx="9.5" cy="9.5" r="9.405" transform="matrix(1 0 0 -1 0 25.6471)" stroke="black" stroke-width="0.19"/>
<path d="M10.2153 22.0138C9.18746 22.0138 8.31828 21.8013 7.60771 21.3762C6.90348 20.9448 6.37055 20.3326 6.00892 19.5395C5.65363 18.7401 5.47599 17.7948 5.47599 16.7036C5.47599 15.5679 5.68218 14.5972 6.09457 13.7915C6.50695 12.9794 7.08746 12.3576 7.8361 11.9262C8.58474 11.4948 9.46344 11.2791 10.4722 11.2791C10.9671 11.2791 11.427 11.3235 11.8521 11.4123C12.2772 11.5011 12.661 11.6249 13.0036 11.7835L12.7467 12.6304C12.3914 12.4718 12.0139 12.3513 11.6142 12.2688C11.2145 12.1863 10.8307 12.1451 10.4627 12.1451C9.61254 12.1451 8.88927 12.3323 8.2929 12.7066C7.70287 13.0746 7.24925 13.6011 6.93203 14.2863C6.62115 14.9652 6.46571 15.7678 6.46571 16.694C6.46571 17.5632 6.59895 18.3341 6.86541 19.0066C7.13187 19.6727 7.54109 20.1993 8.09305 20.5863C8.64501 20.967 9.35242 21.1573 10.2153 21.1573C10.7165 21.1573 11.1923 21.1066 11.6427 21.0051C12.0995 20.9035 12.5151 20.7735 12.8894 20.6149V21.4904C12.5532 21.6427 12.163 21.7664 11.7189 21.8616C11.2811 21.9631 10.7799 22.0138 10.2153 22.0138ZM23.9192 16.6369C23.9192 17.4363 23.8208 18.1659 23.6241 18.8258C23.4275 19.4792 23.1356 20.0439 22.7486 20.5197C22.3616 20.9955 21.8794 21.3635 21.3021 21.6236C20.7311 21.8838 20.0649 22.0138 19.3036 22.0138C18.5803 22.0138 17.9364 21.8869 17.3717 21.6332C16.8071 21.373 16.3281 21.0051 15.9347 20.5292C15.5477 20.0534 15.2527 19.4887 15.0497 18.8353C14.8467 18.1755 14.7452 17.4427 14.7452 16.6369C14.7452 15.5267 14.9291 14.5718 15.2971 13.7724C15.6714 12.9667 16.2044 12.3513 16.8959 11.9262C17.5938 11.4948 18.4281 11.2791 19.3988 11.2791C20.4012 11.2791 21.2355 11.5075 21.9016 11.9643C22.5741 12.4147 23.0785 13.0428 23.4148 13.8486C23.751 14.6543 23.9192 15.5838 23.9192 16.6369ZM15.7349 16.6369C15.7349 17.5442 15.8649 18.3372 16.1251 19.0161C16.3852 19.6949 16.7785 20.2247 17.3051 20.6054C17.8381 20.986 18.5106 21.1764 19.3226 21.1764C20.1538 21.1764 20.8358 20.986 21.3687 20.6054C21.9016 20.2247 22.295 19.6918 22.5488 19.0066C22.8025 18.3214 22.9294 17.5315 22.9294 16.6369C22.9294 15.7678 22.8089 14.9937 22.5678 14.3149C22.3267 13.636 21.9461 13.1031 21.4258 12.7161C20.9056 12.3227 20.2267 12.1261 19.3893 12.1261C18.1902 12.1261 17.2797 12.5258 16.658 13.3252C16.0426 14.1246 15.7349 15.2285 15.7349 16.6369Z" fill="black"/>
</svg>
